<?xml version="1.0" standalone="no"?>
<!DOCTYPE svg PUBLIC "-//W3C//DTD SVG 20010904//EN"
 "http://www.w3.org/TR/2001/REC-SVG-20010904/DTD/svg10.dtd">
<svg version="1.0" xmlns="http://www.w3.org/2000/svg"
 width="260.000000pt" height="260.000000pt" viewBox="0 0 260.000000 260.000000"
 preserveAspectRatio="xMidYMid meet">
<metadata>
Created by potrace 1.11, written by Peter Selinger 2001-2013
</metadata>
<g transform="translate(0.000000,260.000000) scale(0.100000,-0.100000)"
fill="#000000" stroke="none">
<path d="M1085 2584 c-257 -44 -490 -162 -691 -349 -136 -127 -263 -331 -329
-528 -49 -148 -64 -253 -61 -437 6 -277 75 -490 232 -717 175 -251 437 -433
741 -513 114 -30 160 -35 338 -35 166 1 245 12 385 57 347 111 663 399 795
725 15 37 31 77 36 88 60 148 85 446 52 640 -44 262 -175 515 -366 706 -168
167 -408 301 -627 348 -25 5 -58 13 -75 16 -62 14 -349 13 -430 -1z"/>
</g>
</svg>
